<svg width="27" height="27" viewBox="0 0 27 27" fill="none" xmlns="http://www.w3.org/2000/svg">
<path d="M4.65809 21.5466C4.44214 21.7699 4.4482 22.126 4.67153 22.3419C4.89492 22.5579 5.25103 22.5518 5.46693 22.3285L21.7794 5.45348C21.9954 5.2301 21.9893 4.87398 21.766 4.65809C21.5426 4.44214 21.1865 4.4482 20.9706 4.67153L4.65809 21.5466Z" fill="#9E78CF"/>
<path d="M20.9707 22.3286C21.1866 22.552 21.5427 22.558 21.7661 22.3421C21.9894 22.1262 21.9955 21.7701 21.7795 21.5467L5.46704 4.6717C5.25114 4.44834 4.89503 4.44231 4.67167 4.65823C4.44831 4.87412 4.44227 5.23024 4.6582 5.45359L20.9707 22.3286Z" fill="#9E78CF"/>
</svg>
